<svg xmlns="http://www.w3.org/2000/svg" width="15" height="12" viewBox="0 0 15 12"><g><g><path fill="#03a9f4" d="M15.124 1.407a6.254 6.254 0 0 1-1.728.474 2.983 2.983 0 0 0 1.32-1.658c-.58.346-1.22.59-1.903.726A2.999 2.999 0 0 0 7.623 3c.001.238.021.467.07.685A8.491 8.491 0 0 1 1.51.547a3.004 3.004 0 0 0 .922 4.01 2.962 2.962 0 0 1-1.355-.37v.033A3.014 3.014 0 0 0 3.48 7.167c-.244.067-.51.1-.786.1-.192 0-.386-.012-.568-.052a3.028 3.028 0 0 0 2.803 2.09 6.028 6.028 0 0 1-3.72 1.279c-.245 0-.481-.011-.717-.041a8.445 8.445 0 0 0 4.602 1.346c5.52 0 8.538-4.573 8.538-8.536 0-.133-.005-.26-.011-.388a5.984 5.984 0 0 0 1.503-1.558z"/></g></g></svg>