<svg xmlns="http://www.w3.org/2000/svg" width="16" height="16" viewBox="0 0 16 16"><g><g><path fill="#22262a" d="M9.938 8h.003zm-.99 1v2a.994.994 0 0 0 1.987 0V9a1 1 0 0 0-.995-1 1 1 0 0 0-.993 1zM5.964 8a1 1 0 0 0-.993 1v2a.994.994 0 1 0 1.987 0V9a1 1 0 0 0-.994-1zm-2.984 6l-.994-8h11.926l-.994 8zm1.77-12h6.4l.5 2H4.258zm10.652 2.676A1.982 1.982 0 0 0 13.913 4h-.218L12.89.757A.993.993 0 0 0 11.926 0h-7.95a1 1 0 0 0-.966.757L2.205 4h-.218c-.57 0-1.113.247-1.49.676a2.009 2.009 0 0 0-.482 1.572l.993 8c.122.998.968 1.75 1.973 1.752h9.938a1.993 1.993 0 0 0 1.973-1.752l.994-8a2.01 2.01 0 0 0-.483-1.572z"/></g></g></svg>