<svg xmlns="http://www.w3.org/2000/svg" width="46" height="46"><defs><clipPath id="a"><path fill="#fff" d="M0 23C0 10.297 10.297 0 23 0s23 10.297 23 23-10.297 23-23 23S0 35.703 0 23z"/></clipPath></defs><path fill="none" stroke="#33a0ff" stroke-miterlimit="20" stroke-width="4" d="M0 23C0 10.297 10.297 0 23 0s23 10.297 23 23-10.297 23-23 23S0 35.703 0 23z" clip-path="url(&quot;#a&quot;)" opacity=".25"/><path fill="#33a0ff" d="M28.961 19l-1 5h-8.96v-5zm-1 7a1.993 1.993 0 001.952-1.608l1-5A2 2 0 0028.956 17H19v-1a1 1 0 00-1-1h-1.99a1 1 0 100 2h1v10A2 2 0 1019 29h6.969a1.992 1.992 0 101.992-2H19v-1z"/></svg>